# xmcd CD database file
#
# Track frame offsets:
#	150
#	12912
#	27432
#	37631
#	57808
#	72092
#	87095
#	103568
#	117569
#	128169
#	140469
#	152236
#	165326
#	177104
#	195462
#	224117
#	236733
#	249364
#	260538
#	274972
#	287169
#	300402
#	312742
#	324352
#
# Disc length: 4514 seconds
#
# Revision: 1
# Processed by: cddbd v1.5.2PL0 Copyright (c) Steve Scherf et al.
# Submitted via: CDex 1.83
#
DISCID=5311a018
DTITLE=Stan Kenton - The Collection 1937-47
DYEAR=2013
DGENRE=Jazz
TTITLE0=So Rare
TTITLE1=Etude For Saxophones
TTITLE2=Reed Rapture
TTITLE3=Gambler's Blues
TTITLE4=Eager Beaver
TTITLE5=Artistry In Rhythm
TTITLE6=Five O'Clock Drag
TTITLE7=And Her Tears Flowed
TTITLE8=Special Delivery
TTITLE9=Tampico
TTITLE10=Artistry Jumps
TTITLE11=Painted Rhythm
TTITLE12=Shoofly Pie and Apple Pan Dowdy
TTITLE13=Intermission Riff
TTITLE14=Concerto To End All Concertos
TTITLE15=Opus In Pastels
TTITLE16=His Feet Too Big For De Bed
TTITLE17=Machito
TTITLE18=Elegy For Alto
TTITLE19=Peanut Vendor
TTITLE20=Thermopolae
TTITLE21=Introduction To A Latin Rhythm (Prologue Suite 1st Mvt)
TTITLE22=Harlem Holiday
TTITLE23=Interlude
EXTD=YEAR: 2013
EXTT0=
EXTT1=
EXTT2=
EXTT3=
EXTT4=
EXTT5=
EXTT6=
EXTT7=
EXTT8=
EXTT9=
EXTT10=
EXTT11=
EXTT12=
EXTT13=
EXTT14=
EXTT15=
EXTT16=
EXTT17=
EXTT18=
EXTT19=
EXTT20=
EXTT21=
EXTT22=
EXTT23=
PLAYORDER=
